/* XPM */
static char * logo_xpm[] = {
"32 32 118 2",
"  	c None",
". 	c #FFFFFF",
"+ 	c #FDF5F0",
"@ 	c #FBE2D3",
"# 	c #F7C3A4",
"$ 	c #F4A87A",
"% 	c #F29D69",
"& 	c #F1955C",
"* 	c #F39F6D",
"= 	c #F3A677",
"- 	c #F7C5A7",
"; 	c #F9D4BE",
"> 	c #FDF0E8",
", 	c #FEF7F4",
"' 	c #FDEFE7",
") 	c #F8CAAF",
"! 	c #F08D51",
"~ 	c #ED7126",
"{ 	c #EC6A1C",
"] 	c #EC6818",
"^ 	c #3B1A06",
"/ 	c #EF8341",
"( 	c #F1955D",
"_ 	c #F9D3BC",
": 	c #FCECE2",
"< 	c #F6BC99",
"[ 	c #EE7831",
"} 	c #000000",
"| 	c #583520",
"1 	c #CB9C7F",
"2 	c #FCE7DB",
"3 	c #FDF6F2",
"4 	c #FEFEFE",
"5 	c #F29A65",
"6 	c #C35613",
"7 	c #562608",
"8 	c #76340C",
"9 	c #622B09",
"0 	c #E66517",
"a 	c #EF8443",
"b 	c #F6B893",
"c 	c #FCEEE5",
"d 	c #F3A06E",
"e 	c #75330B",
"f 	c #BD5313",
"g 	c #2E1404",
"h 	c #F0894B",
"i 	c #F8CCB2",
"j 	c #FAD9C5",
"k 	c #5F2A09",
"l 	c #D45D15",
"m 	c #F8CDB2",
"n 	c #F5B38B",
"o 	c #251003",
"p 	c #461E07",
"q 	c #170A02",
"r 	c #F08B4E",
"s 	c #EE7A34",
"t 	c #2F1404",
"u 	c #FADBC8",
"v 	c #ED762D",
"w 	c #301504",
"x 	c #1D0D03",
"y 	c #F9D5BF",
"z 	c #F29964",
"A 	c #F9D6C1",
"B 	c #F7C6A8",
"C 	c #F08C50",
"D 	c #EE7C37",
"E 	c #FADCC9",
"F 	c #EE7F41",
"G 	c #EC5B18",
"H 	c #EC5118",
"I 	c #EC6418",
"J 	c #F7B9A7",
"K 	c #ED512E",
"L 	c #EC3718",
"M 	c #EC3518",
"N 	c #EC3918",
"O 	c #EC4B18",
"P 	c #EC6218",
"Q 	c #2B1304",
"R 	c #F6A599",
"S 	c #EC3C20",
"T 	c #EC3618",
"U 	c #EC4A18",
"V 	c #EC6118",
"W 	c #C35513",
"X 	c #8C3D0E",
"Y 	c #F3A16F",
"Z 	c #F6A79A",
"` 	c #EC3B1F",
" .	c #EC4018",
"..	c #EC5818",
"+.	c #F9D1BA",
"@.	c #FACCC5",
"#.	c #EF5A43",
"$.	c #EC4218",
"%.	c #F6BF9D",
"&.	c #FDF2F0",
"*.	c #F7B2A7",
"=.	c #EC3D21",
"-.	c #FEFAF9",
";.	c #EC3B20",
">.	c #F2886C",
",.	c #F8C9AD",
"'.	c #FCE9DD",
").	c #FEF7F3",
"!.	c #EC3619",
"~.	c #EC391D",
"{.	c #F1715D",
"].	c #FEF5F4",
"^.	c #F2816F",
"/.	c #FCE1DD",
"(.	c #F8BAB0",
"_.	c #FBD7D1",
":.	c #F8BEB5",
"<.	c #EC371A",
". . . . . . . . . . . . . . . . . . . . . . . . . . . . . . . . ",
". . . . . . . . . . . . . . . . . . . . . . . . . . . . . . . . ",
". . . . . . . . . . . . . . . . . . . . . . . . . . . . . . . . ",
". . . . . . . . . . . . . . . . . . . . . . . . . . . . . . . . ",
". . . . . . . . . . . . . . . . . . . . . . . . . . . . . . . . ",
". . . . . . . . + @ # $ % & * = - ; > , . . . . . . . . . . . . ",
". . . . . . ' ) ! ~ { ] ] ] ^ ] ] ] / ( _ : . . . . . . . . . . ",
". . . . : < [ ] ] ] ] ] ] ] ^ } ] ] ] ] ] ] | 1 2 3 4 . . . . . ",
". . . : 5 6 7 8 8 8 ] ] ] ^ 8 ] ] ] ] ] ] 8 9 0 a b c 4 . . . . ",
". . : d ] 0 6 e } e ] f g e ] ] ] ] ] ] ] ] } ] ] ] h i 4 . . . ",
". . j ! ] ] ] g k f ] g } } ] ] ] ] ] ] ] 8 } l ] ] ] ] m 4 . . ",
". . n ] ] ] ] f ^ g ] f o 8 8 ] 8 8 ] ] ] ^ p l ] ] ] ] ] i 4 . ",
". . n ] ] ] 8 q e ] ] ] ] q e f } 8 } 8 8 8 8 8 ] ] 8 ] ] r c 4 ",
". . n ] ] ] 8 8 ] ] ] ] 8 o f o g ] ] k g ] f g ] 8 ^ ] ] ] < 3 ",
". . j s ] ] ] 8 } ] ] ] e ] ] ] f ] ] ] ] ] ] g f 8 8 ] ] ] & c ",
". . : a ] ] 8 t f f ] ] ] ] ] ] o q g ] ] ] ] 8 8 } ] ] ] ] ] u ",
". . . ) v ] ] g g g ] ] f ] ] ] q w f ] ] ] ] x x 8 ] ] ] ] ] y ",
". . . : z ] ] ] ] } 8 8 g ] ] ] q k ] ] ] ] g k ] ] ] ] ] ] ] ) ",
". . . . : d ] ] ] ] e e ] ] ] ] f q f ] ] f g ] ] ] ] ^ } g ] A ",
". . . . . : B C ] ] [ r / D ] ] ] 8 g ] ] ] ] ] ] ] ^ ^ o o ] E ",
". . . . . . . . . . . . . 4 i F G H H G I ] ] ] ] } ^ ] ] ] ] > ",
". . . . . . . . . . . . . . 4 J K L M N O P ] Q 9 ] l l ] ] ] , ",
". . . . . . . . . . . . . . . R S M M M T U V W 0 ] X X ] ] Y . ",
". . . . . . . . . . . . . . . Z ` M M M M M  ...I ] ] 8 8 ] +.. ",
". . . . . . . . . . . . . . . @.#.M M M M M M $.G ] ] ] ] %., . ",
". . . . . . . . . . . . . . . &.*.=.M M M M M L H ] ] C %., . . ",
". . . . . . . . . . . . . . . . -.;.M M M M M =.>.,.y '.).. . . ",
". . . . . . . . . . . . . . . . . !.M M M M ~.{.@.. . . . . . . ",
". . . . . . . . . . . . . . . . ].M M M M M ^.@.&.. . . . . . . ",
". . . . . . . . . . . . . . . . /.M M M M M (.. . . . . . . . . ",
". . . . . . . . . . . . . . . . _.M M M M M :.. . . . . . . . . ",
". . . . . . . . . . . . . . . . /.<.M M M !._.. . . . . . . . . "};
